STARTFONT 2.1
FONT -FontForge-kairon--R-Normal--16-160-75-75-P-81-ISO10646-1
SIZE 16 75 75
FONTBOUNDINGBOX 12 16 0 -3
COMMENT "Generated by fontforge, http://fontforge.sourceforge.net"
COMMENT "Copyright 2022, Ka-Ping Yee"
STARTPROPERTIES 4
CHARSET_ENCODING "1"
CHARSET_REGISTRY "ISO10646"
FONT_ASCENT 13
FONT_DESCENT 3
ENDPROPERTIES
CHARS 178
STARTCHAR space
ENCODING 32
SWIDTH 312 0
DWIDTH 5 0
BBX 1 1 2 0
BITMAP
00
ENDCHAR
STARTCHAR exclam
ENCODING 33
SWIDTH 250 0
DWIDTH 4 0
BBX 2 11 1 0
BITMAP
C0
C0
C0
C0
C0
C0
C0
00
00
C0
C0
ENDCHAR
STARTCHAR quotedbl
ENCODING 34
SWIDTH 437 0
DWIDTH 7 0
BBX 5 4 1 8
BITMAP
D8
D8
D8
D8
ENDCHAR
STARTCHAR numbersign
ENCODING 35
SWIDTH 562 0
DWIDTH 9 0
BBX 7 11 1 0
BITMAP
6C
6C
6C
FE
FE
6C
FE
FE
6C
6C
6C
ENDCHAR
STARTCHAR dollar
ENCODING 36
SWIDTH 562 0
DWIDTH 9 0
BBX 7 11 1 0
BITMAP
10
7C
FE
D6
F0
7C
1E
D6
FE
7C
10
ENDCHAR
STARTCHAR percent
ENCODING 37
SWIDTH 562 0
DWIDTH 9 0
BBX 6 8 1 0
BITMAP
CC
D8
18
30
30
60
6C
CC
ENDCHAR
STARTCHAR ampersand
ENCODING 38
SWIDTH 562 0
DWIDTH 9 0
BBX 8 11 1 0
BITMAP
38
7C
6C
7C
38
7B
DF
CE
CC
FF
7B
ENDCHAR
STARTCHAR quotesingle
ENCODING 39
SWIDTH 332 0
DWIDTH 5 0
BBX 3 4 1 8
BITMAP
60
60
60
C0
ENDCHAR
STARTCHAR parenleft
ENCODING 40
SWIDTH 443 0
DWIDTH 7 0
BBX 5 13 1 -1
BITMAP
18
30
60
60
C0
C0
C0
C0
C0
60
60
30
18
ENDCHAR
STARTCHAR parenright
ENCODING 41
SWIDTH 437 0
DWIDTH 7 0
BBX 5 13 1 -1
BITMAP
C0
60
30
30
18
18
18
18
18
30
30
60
C0
ENDCHAR
STARTCHAR asterisk
ENCODING 42
SWIDTH 625 0
DWIDTH 10 0
BBX 7 7 1 2
BITMAP
10
D6
7C
38
7C
D6
10
ENDCHAR
STARTCHAR plus
ENCODING 43
SWIDTH 500 0
DWIDTH 8 0
BBX 6 6 1 3
BITMAP
30
30
FC
FC
30
30
ENDCHAR
STARTCHAR comma
ENCODING 44
SWIDTH 250 0
DWIDTH 4 0
BBX 3 4 0 -2
BITMAP
60
60
60
C0
ENDCHAR
STARTCHAR hyphen
ENCODING 45
SWIDTH 375 0
DWIDTH 6 0
BBX 4 2 1 4
BITMAP
F0
F0
ENDCHAR
STARTCHAR period
ENCODING 46
SWIDTH 221 0
DWIDTH 4 0
BBX 2 2 1 0
BITMAP
C0
C0
ENDCHAR
STARTCHAR slash
ENCODING 47
SWIDTH 1000 0
DWIDTH 16 0
BBX 7 12 1 -1
BITMAP
06
06
0C
0C
18
18
30
30
60
60
C0
C0
ENDCHAR
STARTCHAR zero
ENCODING 48
SWIDTH 500 0
DWIDTH 8 0
BBX 6 11 1 0
BITMAP
78
FC
CC
CC
CC
CC
CC
CC
CC
FC
78
ENDCHAR
STARTCHAR one
ENCODING 49
SWIDTH 500 0
DWIDTH 8 0
BBX 4 11 2 0
BITMAP
60
E0
E0
60
60
60
60
60
60
F0
F0
ENDCHAR
STARTCHAR two
ENCODING 50
SWIDTH 500 0
DWIDTH 8 0
BBX 6 11 1 0
BITMAP
78
FC
CC
0C
1C
38
70
E0
C0
FC
FC
ENDCHAR
STARTCHAR three
ENCODING 51
SWIDTH 500 0
DWIDTH 8 0
BBX 6 11 1 0
BITMAP
78
FC
CC
0C
38
38
0C
0C
CC
FC
78
ENDCHAR
STARTCHAR four
ENCODING 52
SWIDTH 500 0
DWIDTH 8 0
BBX 6 11 1 0
BITMAP
18
38
38
78
78
D8
D8
FC
FC
18
18
ENDCHAR
STARTCHAR five
ENCODING 53
SWIDTH 500 0
DWIDTH 8 0
BBX 6 11 1 0
BITMAP
FC
FC
C0
C0
F8
FC
0C
0C
CC
FC
78
ENDCHAR
STARTCHAR six
ENCODING 54
SWIDTH 500 0
DWIDTH 8 0
BBX 6 11 1 0
BITMAP
38
78
E0
C0
F8
FC
CC
CC
CC
FC
78
ENDCHAR
STARTCHAR seven
ENCODING 55
SWIDTH 500 0
DWIDTH 8 0
BBX 6 11 1 0
BITMAP
FC
FC
0C
18
18
30
30
30
60
60
60
ENDCHAR
STARTCHAR eight
ENCODING 56
SWIDTH 500 0
DWIDTH 8 0
BBX 6 11 1 0
BITMAP
78
FC
CC
CC
78
78
CC
CC
CC
FC
78
ENDCHAR
STARTCHAR nine
ENCODING 57
SWIDTH 500 0
DWIDTH 8 0
BBX 6 11 1 0
BITMAP
78
FC
CC
CC
CC
FC
7C
0C
1C
78
70
ENDCHAR
STARTCHAR colon
ENCODING 58
SWIDTH 221 0
DWIDTH 4 0
BBX 2 8 1 0
BITMAP
C0
C0
00
00
00
00
C0
C0
ENDCHAR
STARTCHAR semicolon
ENCODING 59
SWIDTH 250 0
DWIDTH 4 0
BBX 3 10 0 -2
BITMAP
60
60
00
00
00
00
60
60
60
C0
ENDCHAR
STARTCHAR less
ENCODING 60
SWIDTH 555 0
DWIDTH 9 0
BBX 7 11 1 0
BITMAP
06
0E
1C
38
70
E0
70
38
1C
0E
06
ENDCHAR
STARTCHAR equal
ENCODING 61
SWIDTH 500 0
DWIDTH 8 0
BBX 6 6 1 3
BITMAP
FC
FC
00
00
FC
FC
ENDCHAR
STARTCHAR greater
ENCODING 62
SWIDTH 562 0
DWIDTH 9 0
BBX 7 11 1 0
BITMAP
C0
E0
70
38
1C
0E
1C
38
70
E0
C0
ENDCHAR
STARTCHAR question
ENCODING 63
SWIDTH 500 0
DWIDTH 8 0
BBX 6 11 1 0
BITMAP
78
FC
CC
0C
1C
38
30
00
00
30
30
ENDCHAR
STARTCHAR at
ENCODING 64
SWIDTH 562 0
DWIDTH 9 0
BBX 7 11 1 0
BITMAP
3C
7E
C6
D6
D6
D6
DE
CC
E0
7E
3E
ENDCHAR
STARTCHAR A
ENCODING 65
SWIDTH 625 0
DWIDTH 10 0
BBX 8 11 1 0
BITMAP
18
18
3C
3C
66
66
66
FF
FF
C3
C3
ENDCHAR
STARTCHAR B
ENCODING 66
SWIDTH 562 0
DWIDTH 9 0
BBX 7 11 1 0
BITMAP
FC
FE
C6
C6
FC
FC
C6
C6
C6
FE
FC
ENDCHAR
STARTCHAR C
ENCODING 67
SWIDTH 562 0
DWIDTH 9 0
BBX 7 11 1 0
BITMAP
3C
7E
E6
C0
C0
C0
C0
C0
E6
7E
3C
ENDCHAR
STARTCHAR D
ENCODING 68
SWIDTH 562 0
DWIDTH 9 0
BBX 7 11 1 0
BITMAP
F8
FC
CE
C6
C6
C6
C6
C6
CE
FC
F8
ENDCHAR
STARTCHAR E
ENCODING 69
SWIDTH 562 0
DWIDTH 9 0
BBX 7 11 1 0
BITMAP
FE
FE
C0
C0
FC
FC
C0
C0
C0
FE
FE
ENDCHAR
STARTCHAR F
ENCODING 70
SWIDTH 562 0
DWIDTH 9 0
BBX 7 11 1 0
BITMAP
FE
FE
C0
C0
FC
FC
C0
C0
C0
C0
C0
ENDCHAR
STARTCHAR G
ENCODING 71
SWIDTH 562 0
DWIDTH 9 0
BBX 7 11 1 0
BITMAP
3C
7E
E6
C0
C0
CE
CE
C6
E6
7E
3E
ENDCHAR
STARTCHAR H
ENCODING 72
SWIDTH 562 0
DWIDTH 9 0
BBX 7 11 1 0
BITMAP
C6
C6
C6
C6
FE
FE
C6
C6
C6
C6
C6
ENDCHAR
STARTCHAR I
ENCODING 73
SWIDTH 375 0
DWIDTH 6 0
BBX 4 11 1 0
BITMAP
F0
F0
60
60
60
60
60
60
60
F0
F0
ENDCHAR
STARTCHAR J
ENCODING 74
SWIDTH 500 0
DWIDTH 8 0
BBX 7 11 1 0
BITMAP
1E
1E
0C
0C
0C
0C
0C
0C
CC
FC
78
ENDCHAR
STARTCHAR K
ENCODING 75
SWIDTH 562 0
DWIDTH 9 0
BBX 7 11 1 0
BITMAP
C6
CE
DC
F8
F0
F8
DC
CC
CE
C6
C6
ENDCHAR
STARTCHAR L
ENCODING 76
SWIDTH 500 0
DWIDTH 8 0
BBX 6 11 1 0
BITMAP
C0
C0
C0
C0
C0
C0
C0
C0
C0
FC
FC
ENDCHAR
STARTCHAR M
ENCODING 77
SWIDTH 750 0
DWIDTH 12 0
BBX 10 11 1 0
BITMAP
C0C0
E1C0
E1C0
F3C0
F3C0
DEC0
DEC0
CCC0
CCC0
CCC0
C0C0
ENDCHAR
STARTCHAR N
ENCODING 78
SWIDTH 562 0
DWIDTH 9 0
BBX 7 11 1 0
BITMAP
C6
C6
E6
E6
F6
FE
DE
CE
CE
C6
C6
ENDCHAR
STARTCHAR O
ENCODING 79
SWIDTH 625 0
DWIDTH 10 0
BBX 8 11 1 0
BITMAP
3C
7E
E7
C3
C3
C3
C3
C3
E7
7E
3C
ENDCHAR
STARTCHAR P
ENCODING 80
SWIDTH 562 0
DWIDTH 9 0
BBX 7 11 1 0
BITMAP
FC
FE
C6
C6
C6
FE
FC
C0
C0
C0
C0
ENDCHAR
STARTCHAR Q
ENCODING 81
SWIDTH 776 0
DWIDTH 12 0
BBX 8 11 1 0
BITMAP
3C
7E
E7
C3
C3
DB
DB
CF
E6
7F
3B
ENDCHAR
STARTCHAR R
ENCODING 82
SWIDTH 562 0
DWIDTH 9 0
BBX 7 11 1 0
BITMAP
FC
FE
C6
C6
C6
FE
FC
CC
CC
C6
C6
ENDCHAR
STARTCHAR S
ENCODING 83
SWIDTH 562 0
DWIDTH 9 0
BBX 7 11 1 0
BITMAP
7C
FE
C6
C0
F0
7C
1E
06
C6
FE
7C
ENDCHAR
STARTCHAR T
ENCODING 84
SWIDTH 500 0
DWIDTH 8 0
BBX 8 11 0 0
BITMAP
FF
FF
18
18
18
18
18
18
18
18
18
ENDCHAR
STARTCHAR U
ENCODING 85
SWIDTH 562 0
DWIDTH 9 0
BBX 7 11 1 0
BITMAP
C6
C6
C6
C6
C6
C6
C6
C6
C6
FE
7C
ENDCHAR
STARTCHAR V
ENCODING 86
SWIDTH 625 0
DWIDTH 10 0
BBX 8 11 1 0
BITMAP
C3
C3
C3
C3
66
66
66
3C
3C
18
18
ENDCHAR
STARTCHAR W
ENCODING 87
SWIDTH 750 0
DWIDTH 12 0
BBX 10 11 1 0
BITMAP
C0C0
C0C0
CCC0
CCC0
DEC0
DEC0
FFC0
7380
7380
6180
6180
ENDCHAR
STARTCHAR X
ENCODING 88
SWIDTH 562 0
DWIDTH 9 0
BBX 7 11 1 0
BITMAP
C6
C6
6C
6C
38
38
6C
6C
C6
C6
C6
ENDCHAR
STARTCHAR Y
ENCODING 89
SWIDTH 500 0
DWIDTH 8 0
BBX 8 11 0 0
BITMAP
C3
C3
66
66
3C
3C
18
18
18
18
18
ENDCHAR
STARTCHAR Z
ENCODING 90
SWIDTH 562 0
DWIDTH 9 0
BBX 7 11 1 0
BITMAP
FE
FE
0C
0C
18
38
30
60
60
FE
FE
ENDCHAR
STARTCHAR bracketleft
ENCODING 91
SWIDTH 437 0
DWIDTH 7 0
BBX 5 13 1 -1
BITMAP
F8
F8
C0
C0
C0
C0
C0
C0
C0
C0
C0
F8
F8
ENDCHAR
STARTCHAR backslash
ENCODING 92
SWIDTH 562 0
DWIDTH 9 0
BBX 7 12 1 -1
BITMAP
C0
C0
60
60
30
30
18
18
0C
0C
06
06
ENDCHAR
STARTCHAR bracketright
ENCODING 93
SWIDTH 437 0
DWIDTH 7 0
BBX 5 13 1 -1
BITMAP
F8
F8
18
18
18
18
18
18
18
18
18
F8
F8
ENDCHAR
STARTCHAR asciicircum
ENCODING 94
SWIDTH 437 0
DWIDTH 7 0
BBX 5 4 1 9
BITMAP
20
70
D8
88
ENDCHAR
STARTCHAR underscore
ENCODING 95
SWIDTH 500 0
DWIDTH 8 0
BBX 6 2 1 -1
BITMAP
FC
FC
ENDCHAR
STARTCHAR grave
ENCODING 96
SWIDTH 332 0
DWIDTH 5 0
BBX 3 4 1 7
BITMAP
60
C0
C0
C0
ENDCHAR
STARTCHAR a
ENCODING 97
SWIDTH 500 0
DWIDTH 8 0
BBX 6 8 1 0
BITMAP
78
7C
0C
7C
FC
CC
FC
7C
ENDCHAR
STARTCHAR b
ENCODING 98
SWIDTH 500 0
DWIDTH 8 0
BBX 6 11 1 0
BITMAP
C0
C0
C0
F8
FC
CC
CC
CC
CC
FC
F8
ENDCHAR
STARTCHAR c
ENCODING 99
SWIDTH 437 0
DWIDTH 7 0
BBX 5 8 1 0
BITMAP
78
F8
C0
C0
C0
C0
F8
78
ENDCHAR
STARTCHAR d
ENCODING 100
SWIDTH 500 0
DWIDTH 8 0
BBX 6 11 1 0
BITMAP
0C
0C
0C
7C
FC
CC
CC
CC
CC
FC
7C
ENDCHAR
STARTCHAR e
ENCODING 101
SWIDTH 500 0
DWIDTH 8 0
BBX 6 8 1 0
BITMAP
78
FC
CC
FC
FC
C0
FC
7C
ENDCHAR
STARTCHAR f
ENCODING 102
SWIDTH 437 0
DWIDTH 7 0
BBX 6 11 1 0
BITMAP
3C
7C
60
F8
F8
60
60
60
60
60
60
ENDCHAR
STARTCHAR g
ENCODING 103
SWIDTH 500 0
DWIDTH 8 0
BBX 6 11 1 -3
BITMAP
7C
FC
CC
CC
CC
CC
FC
7C
0C
FC
F8
ENDCHAR
STARTCHAR h
ENCODING 104
SWIDTH 500 0
DWIDTH 8 0
BBX 6 11 1 0
BITMAP
C0
C0
C0
F8
FC
CC
CC
CC
CC
CC
CC
ENDCHAR
STARTCHAR i
ENCODING 105
SWIDTH 221 0
DWIDTH 4 0
BBX 2 11 1 0
BITMAP
C0
C0
00
C0
C0
C0
C0
C0
C0
C0
C0
ENDCHAR
STARTCHAR j
ENCODING 106
SWIDTH 375 0
DWIDTH 6 0
BBX 5 14 0 -3
BITMAP
18
18
00
18
18
18
18
18
18
18
18
18
F8
F0
ENDCHAR
STARTCHAR k
ENCODING 107
SWIDTH 500 0
DWIDTH 8 0
BBX 6 11 1 0
BITMAP
C0
C0
C0
CC
DC
F8
F0
F8
D8
CC
CC
ENDCHAR
STARTCHAR l
ENCODING 108
SWIDTH 312 0
DWIDTH 5 0
BBX 4 11 1 0
BITMAP
C0
C0
C0
C0
C0
C0
C0
C0
C0
F0
70
ENDCHAR
STARTCHAR m
ENCODING 109
SWIDTH 750 0
DWIDTH 12 0
BBX 10 8 1 0
BITMAP
FB80
FFC0
CCC0
CCC0
CCC0
CCC0
CCC0
CCC0
ENDCHAR
STARTCHAR n
ENCODING 110
SWIDTH 500 0
DWIDTH 8 0
BBX 6 8 1 0
BITMAP
F8
FC
CC
CC
CC
CC
CC
CC
ENDCHAR
STARTCHAR o
ENCODING 111
SWIDTH 500 0
DWIDTH 8 0
BBX 6 8 1 0
BITMAP
78
FC
CC
CC
CC
CC
FC
78
ENDCHAR
STARTCHAR p
ENCODING 112
SWIDTH 500 0
DWIDTH 8 0
BBX 6 11 1 -3
BITMAP
F8
FC
CC
CC
CC
CC
FC
F8
C0
C0
C0
ENDCHAR
STARTCHAR q
ENCODING 113
SWIDTH 500 0
DWIDTH 8 0
BBX 6 11 1 -3
BITMAP
7C
FC
CC
CC
CC
CC
FC
7C
0C
0C
0C
ENDCHAR
STARTCHAR r
ENCODING 114
SWIDTH 500 0
DWIDTH 8 0
BBX 6 8 1 0
BITMAP
DC
FC
F0
E0
C0
C0
C0
C0
ENDCHAR
STARTCHAR s
ENCODING 115
SWIDTH 500 0
DWIDTH 8 0
BBX 6 8 1 0
BITMAP
7C
FC
C0
F8
7C
0C
FC
F8
ENDCHAR
STARTCHAR t
ENCODING 116
SWIDTH 443 0
DWIDTH 7 0
BBX 5 11 1 0
BITMAP
60
60
60
F8
F8
60
60
60
60
78
38
ENDCHAR
STARTCHAR u
ENCODING 117
SWIDTH 500 0
DWIDTH 8 0
BBX 6 8 1 0
BITMAP
CC
CC
CC
CC
CC
CC
FC
7C
ENDCHAR
STARTCHAR v
ENCODING 118
SWIDTH 562 0
DWIDTH 9 0
BBX 7 8 1 0
BITMAP
C6
C6
C6
6C
6C
6C
38
38
ENDCHAR
STARTCHAR w
ENCODING 119
SWIDTH 750 0
DWIDTH 12 0
BBX 10 8 1 0
BITMAP
CCC0
CCC0
DEC0
DEC0
7380
7380
6180
6180
ENDCHAR
STARTCHAR x
ENCODING 120
SWIDTH 562 0
DWIDTH 9 0
BBX 7 8 1 0
BITMAP
C6
EE
7C
38
7C
6C
C6
C6
ENDCHAR
STARTCHAR y
ENCODING 121
SWIDTH 500 0
DWIDTH 8 0
BBX 6 11 1 -3
BITMAP
CC
CC
CC
CC
CC
CC
FC
7C
0C
FC
F8
ENDCHAR
STARTCHAR z
ENCODING 122
SWIDTH 500 0
DWIDTH 8 0
BBX 6 8 1 0
BITMAP
FC
FC
18
38
70
60
FC
FC
ENDCHAR
STARTCHAR braceleft
ENCODING 123
SWIDTH 500 0
DWIDTH 8 0
BBX 6 13 1 -1
BITMAP
1C
3C
30
30
30
70
E0
70
30
30
30
3C
1C
ENDCHAR
STARTCHAR bar
ENCODING 124
SWIDTH 250 0
DWIDTH 4 0
BBX 2 13 1 -1
BITMAP
C0
C0
C0
C0
C0
C0
C0
C0
C0
C0
C0
C0
C0
ENDCHAR
STARTCHAR braceright
ENCODING 125
SWIDTH 500 0
DWIDTH 8 0
BBX 6 13 1 -1
BITMAP
E0
F0
30
30
30
38
1C
38
30
30
30
F0
E0
ENDCHAR
STARTCHAR asciitilde
ENCODING 126
SWIDTH 562 0
DWIDTH 9 0
BBX 7 3 1 4
BITMAP
72
FE
9C
ENDCHAR
STARTCHAR exclamdown
ENCODING 161
SWIDTH 250 0
DWIDTH 4 0
BBX 2 11 1 0
BITMAP
C0
C0
00
00
C0
C0
C0
C0
C0
C0
C0
ENDCHAR
STARTCHAR guillemotleft
ENCODING 171
SWIDTH 625 0
DWIDTH 10 0
BBX 8 7 1 1
BITMAP
11
33
66
CC
66
33
11
ENDCHAR
STARTCHAR degree
ENCODING 176
SWIDTH 437 0
DWIDTH 7 0
BBX 5 4 1 8
BITMAP
70
D8
D8
70
ENDCHAR
STARTCHAR twosuperior
ENCODING 178
SWIDTH 437 0
DWIDTH 7 0
BBX 5 8 1 5
BITMAP
F0
F8
18
38
70
E0
F8
F8
ENDCHAR
STARTCHAR threesuperior
ENCODING 179
SWIDTH 437 0
DWIDTH 7 0
BBX 5 8 1 5
BITMAP
F0
F8
18
70
78
18
F8
F0
ENDCHAR
STARTCHAR mu
ENCODING 181
SWIDTH 500 0
DWIDTH 8 0
BBX 7 11 0 -3
BITMAP
66
66
66
66
66
66
7E
7C
60
60
C0
ENDCHAR
STARTCHAR periodcentered
ENCODING 183
SWIDTH 500 0
DWIDTH 8 0
BBX 2 2 3 4
BITMAP
C0
C0
ENDCHAR
STARTCHAR guillemotright
ENCODING 187
SWIDTH 625 0
DWIDTH 10 0
BBX 8 7 1 1
BITMAP
88
CC
66
33
66
CC
88
ENDCHAR
STARTCHAR questiondown
ENCODING 191
SWIDTH 500 0
DWIDTH 8 0
BBX 6 11 1 0
BITMAP
30
30
00
00
30
70
E0
C0
CC
FC
78
ENDCHAR
STARTCHAR Agrave
ENCODING 192
SWIDTH 625 0
DWIDTH 10 0
BBX 8 13 1 0
BITMAP
30
18
00
18
3C
3C
66
66
66
FF
FF
C3
C3
ENDCHAR
STARTCHAR Aacute
ENCODING 193
SWIDTH 625 0
DWIDTH 10 0
BBX 8 13 1 0
BITMAP
0C
18
00
18
3C
3C
66
66
66
FF
FF
C3
C3
ENDCHAR
STARTCHAR Acircumflex
ENCODING 194
SWIDTH 625 0
DWIDTH 10 0
BBX 8 13 1 0
BITMAP
38
6C
00
18
3C
3C
66
66
66
FF
FF
C3
C3
ENDCHAR
STARTCHAR Atilde
ENCODING 195
SWIDTH 625 0
DWIDTH 10 0
BBX 8 13 1 0
BITMAP
3A
5C
00
18
3C
3C
66
66
66
FF
FF
C3
C3
ENDCHAR
STARTCHAR Adieresis
ENCODING 196
SWIDTH 625 0
DWIDTH 10 0
BBX 8 13 1 0
BITMAP
6C
6C
00
18
3C
3C
66
66
66
FF
FF
C3
C3
ENDCHAR
STARTCHAR Aring
ENCODING 197
SWIDTH 625 0
DWIDTH 10 0
BBX 8 13 1 0
BITMAP
38
6C
38
18
3C
3C
66
66
66
FF
FF
C3
C3
ENDCHAR
STARTCHAR AE
ENCODING 198
SWIDTH 812 0
DWIDTH 13 0
BBX 11 11 1 0
BITMAP
1FE0
1FE0
3E00
3E00
67C0
67C0
6600
FE00
FE00
C7E0
C7E0
ENDCHAR
STARTCHAR Ccedilla
ENCODING 199
SWIDTH 562 0
DWIDTH 9 0
BBX 7 14 1 -3
BITMAP
3C
7E
E6
C0
C0
C0
C0
C0
E6
7E
3C
18
18
30
ENDCHAR
STARTCHAR Egrave
ENCODING 200
SWIDTH 562 0
DWIDTH 9 0
BBX 7 13 1 0
BITMAP
30
18
00
FE
FE
C0
C0
FC
FC
C0
C0
FE
FE
ENDCHAR
STARTCHAR Eacute
ENCODING 201
SWIDTH 562 0
DWIDTH 9 0
BBX 7 13 1 0
BITMAP
18
30
00
FE
FE
C0
C0
FC
FC
C0
C0
FE
FE
ENDCHAR
STARTCHAR Ecircumflex
ENCODING 202
SWIDTH 562 0
DWIDTH 9 0
BBX 7 13 1 0
BITMAP
38
6C
00
FE
FE
C0
C0
FC
FC
C0
C0
FE
FE
ENDCHAR
STARTCHAR Edieresis
ENCODING 203
SWIDTH 562 0
DWIDTH 9 0
BBX 7 13 1 0
BITMAP
6C
6C
00
FE
FE
C0
C0
FC
FC
C0
C0
FE
FE
ENDCHAR
STARTCHAR Igrave
ENCODING 204
SWIDTH 375 0
DWIDTH 6 0
BBX 4 13 1 0
BITMAP
C0
60
00
F0
F0
60
60
60
60
60
60
F0
F0
ENDCHAR
STARTCHAR Iacute
ENCODING 205
SWIDTH 375 0
DWIDTH 6 0
BBX 4 13 1 0
BITMAP
30
60
00
F0
F0
60
60
60
60
60
60
F0
F0
ENDCHAR
STARTCHAR Icircumflex
ENCODING 206
SWIDTH 375 0
DWIDTH 6 0
BBX 5 13 0 0
BITMAP
70
D8
00
78
78
30
30
30
30
30
30
78
78
ENDCHAR
STARTCHAR Idieresis
ENCODING 207
SWIDTH 375 0
DWIDTH 6 0
BBX 5 13 0 0
BITMAP
D8
D8
00
78
78
30
30
30
30
30
30
78
78
ENDCHAR
STARTCHAR Eth
ENCODING 208
SWIDTH 625 0
DWIDTH 10 0
BBX 8 11 1 0
BITMAP
7C
7E
67
63
FB
FB
63
63
67
7E
7C
ENDCHAR
STARTCHAR Ntilde
ENCODING 209
SWIDTH 562 0
DWIDTH 9 0
BBX 7 13 1 0
BITMAP
3A
5C
00
C6
E6
E6
F6
FE
DE
CE
CE
C6
C6
ENDCHAR
STARTCHAR Ograve
ENCODING 210
SWIDTH 625 0
DWIDTH 10 0
BBX 8 13 1 0
BITMAP
30
18
00
3C
7E
E7
C3
C3
C3
C3
E7
7E
3C
ENDCHAR
STARTCHAR Oacute
ENCODING 211
SWIDTH 625 0
DWIDTH 10 0
BBX 8 13 1 0
BITMAP
0C
18
00
3C
7E
E7
C3
C3
C3
C3
E7
7E
3C
ENDCHAR
STARTCHAR Ocircumflex
ENCODING 212
SWIDTH 625 0
DWIDTH 10 0
BBX 8 13 1 0
BITMAP
38
6C
00
3C
7E
E7
C3
C3
C3
C3
E7
7E
3C
ENDCHAR
STARTCHAR Otilde
ENCODING 213
SWIDTH 625 0
DWIDTH 10 0
BBX 8 13 1 0
BITMAP
3A
5C
00
3C
7E
E7
C3
C3
C3
C3
E7
7E
3C
ENDCHAR
STARTCHAR Odieresis
ENCODING 214
SWIDTH 625 0
DWIDTH 10 0
BBX 8 13 1 0
BITMAP
6C
6C
00
3C
7E
E7
C3
C3
C3
C3
E7
7E
3C
ENDCHAR
STARTCHAR multiply
ENCODING 215
SWIDTH 562 0
DWIDTH 9 0
BBX 7 7 1 2
BITMAP
C6
EE
7C
38
7C
EE
C6
ENDCHAR
STARTCHAR Oslash
ENCODING 216
SWIDTH 625 0
DWIDTH 10 0
BBX 8 13 1 -1
BITMAP
01
3F
7E
E7
CF
CB
DB
D3
F3
E7
7E
FC
80
ENDCHAR
STARTCHAR Ugrave
ENCODING 217
SWIDTH 562 0
DWIDTH 9 0
BBX 7 13 1 0
BITMAP
18
30
00
C6
C6
C6
C6
C6
C6
C6
C6
FE
7C
ENDCHAR
STARTCHAR Uacute
ENCODING 218
SWIDTH 562 0
DWIDTH 9 0
BBX 7 13 1 0
BITMAP
30
18
00
C6
C6
C6
C6
C6
C6
C6
C6
FE
7C
ENDCHAR
STARTCHAR Ucircumflex
ENCODING 219
SWIDTH 562 0
DWIDTH 9 0
BBX 7 13 1 0
BITMAP
38
6C
00
C6
C6
C6
C6
C6
C6
C6
C6
FE
7C
ENDCHAR
STARTCHAR Udieresis
ENCODING 220
SWIDTH 562 0
DWIDTH 9 0
BBX 7 13 1 0
BITMAP
6C
6C
00
C6
C6
C6
C6
C6
C6
C6
C6
FE
7C
ENDCHAR
STARTCHAR Yacute
ENCODING 221
SWIDTH 625 0
DWIDTH 10 0
BBX 8 13 1 0
BITMAP
18
30
00
C3
66
66
3C
3C
18
18
18
18
18
ENDCHAR
STARTCHAR Thorn
ENCODING 222
SWIDTH 562 0
DWIDTH 9 0
BBX 7 11 1 0
BITMAP
C0
C0
FC
FE
C6
C6
C6
FE
FC
C0
C0
ENDCHAR
STARTCHAR germandbls
ENCODING 223
SWIDTH 562 0
DWIDTH 9 0
BBX 6 11 1 0
BITMAP
78
FC
CC
CC
D8
DC
CC
CC
CC
DC
D8
ENDCHAR
STARTCHAR agrave
ENCODING 224
SWIDTH 500 0
DWIDTH 8 0
BBX 6 12 1 0
BITMAP
60
30
18
00
78
7C
0C
7C
FC
CC
FC
7C
ENDCHAR
STARTCHAR aacute
ENCODING 225
SWIDTH 500 0
DWIDTH 8 0
BBX 6 12 1 0
BITMAP
18
30
60
00
78
7C
0C
7C
FC
CC
FC
7C
ENDCHAR
STARTCHAR acircumflex
ENCODING 226
SWIDTH 500 0
DWIDTH 8 0
BBX 6 12 1 0
BITMAP
10
38
6C
00
78
7C
0C
7C
FC
CC
FC
7C
ENDCHAR
STARTCHAR atilde
ENCODING 227
SWIDTH 500 0
DWIDTH 8 0
BBX 6 11 1 0
BITMAP
74
B8
00
78
7C
0C
7C
FC
CC
FC
7C
ENDCHAR
STARTCHAR adieresis
ENCODING 228
SWIDTH 500 0
DWIDTH 8 0
BBX 6 11 1 0
BITMAP
6C
6C
00
78
7C
0C
7C
FC
CC
FC
7C
ENDCHAR
STARTCHAR aring
ENCODING 229
SWIDTH 500 0
DWIDTH 8 0
BBX 6 12 1 0
BITMAP
38
6C
38
00
78
7C
0C
7C
FC
CC
FC
7C
ENDCHAR
STARTCHAR ae
ENCODING 230
SWIDTH 750 0
DWIDTH 12 0
BBX 10 8 1 0
BITMAP
7B80
7FC0
0CC0
7FC0
FFC0
CC00
FFC0
77C0
ENDCHAR
STARTCHAR ccedilla
ENCODING 231
SWIDTH 500 0
DWIDTH 8 0
BBX 5 11 1 -3
BITMAP
78
F8
C0
C0
C0
C0
F8
78
30
30
60
ENDCHAR
STARTCHAR egrave
ENCODING 232
SWIDTH 500 0
DWIDTH 8 0
BBX 6 12 1 0
BITMAP
60
30
18
00
78
FC
CC
FC
FC
C0
FC
7C
ENDCHAR
STARTCHAR eacute
ENCODING 233
SWIDTH 500 0
DWIDTH 8 0
BBX 6 12 1 0
BITMAP
18
30
60
00
78
FC
CC
FC
FC
C0
FC
7C
ENDCHAR
STARTCHAR ecircumflex
ENCODING 234
SWIDTH 500 0
DWIDTH 8 0
BBX 6 12 1 0
BITMAP
20
70
D8
00
78
FC
CC
FC
FC
C0
FC
7C
ENDCHAR
STARTCHAR edieresis
ENCODING 235
SWIDTH 500 0
DWIDTH 8 0
BBX 6 11 1 0
BITMAP
D8
D8
00
78
FC
CC
FC
FC
C0
FC
7C
ENDCHAR
STARTCHAR igrave
ENCODING 236
SWIDTH 250 0
DWIDTH 4 0
BBX 4 12 0 0
BITMAP
C0
60
30
00
60
60
60
60
60
60
60
60
ENDCHAR
STARTCHAR iacute
ENCODING 237
SWIDTH 250 0
DWIDTH 4 0
BBX 4 12 0 0
BITMAP
30
60
C0
00
60
60
60
60
60
60
60
60
ENDCHAR
STARTCHAR icircumflex
ENCODING 238
SWIDTH 312 0
DWIDTH 5 0
BBX 5 12 0 0
BITMAP
20
70
D8
00
30
30
30
30
30
30
30
30
ENDCHAR
STARTCHAR idieresis
ENCODING 239
SWIDTH 312 0
DWIDTH 5 0
BBX 5 11 0 0
BITMAP
D8
D8
00
30
30
30
30
30
30
30
30
ENDCHAR
STARTCHAR eth
ENCODING 240
SWIDTH 500 0
DWIDTH 8 0
BBX 6 12 1 0
BITMAP
6C
38
78
0C
7C
FC
CC
CC
CC
CC
FC
78
ENDCHAR
STARTCHAR ntilde
ENCODING 241
SWIDTH 500 0
DWIDTH 8 0
BBX 6 11 1 0
BITMAP
74
B8
00
F8
FC
CC
CC
CC
CC
CC
CC
ENDCHAR
STARTCHAR ograve
ENCODING 242
SWIDTH 500 0
DWIDTH 8 0
BBX 6 12 1 0
BITMAP
60
30
18
00
78
FC
CC
CC
CC
CC
FC
78
ENDCHAR
STARTCHAR oacute
ENCODING 243
SWIDTH 500 0
DWIDTH 8 0
BBX 6 12 1 0
BITMAP
18
30
60
00
78
FC
CC
CC
CC
CC
FC
78
ENDCHAR
STARTCHAR ocircumflex
ENCODING 244
SWIDTH 500 0
DWIDTH 8 0
BBX 6 12 1 0
BITMAP
20
70
D8
00
78
FC
CC
CC
CC
CC
FC
78
ENDCHAR
STARTCHAR otilde
ENCODING 245
SWIDTH 500 0
DWIDTH 8 0
BBX 6 11 1 0
BITMAP
74
B8
00
78
FC
CC
CC
CC
CC
FC
78
ENDCHAR
STARTCHAR odieresis
ENCODING 246
SWIDTH 500 0
DWIDTH 8 0
BBX 6 11 1 0
BITMAP
D8
D8
00
78
FC
CC
CC
CC
CC
FC
78
ENDCHAR
STARTCHAR divide
ENCODING 247
SWIDTH 500 0
DWIDTH 8 0
BBX 6 8 1 2
BITMAP
30
30
00
FC
FC
00
30
30
ENDCHAR
STARTCHAR oslash
ENCODING 248
SWIDTH 500 0
DWIDTH 8 0
BBX 6 8 1 0
BITMAP
7C
FC
CC
DC
EC
CC
FC
F8
ENDCHAR
STARTCHAR ugrave
ENCODING 249
SWIDTH 500 0
DWIDTH 8 0
BBX 6 12 1 0
BITMAP
60
30
18
00
CC
CC
CC
CC
CC
CC
FC
7C
ENDCHAR
STARTCHAR uacute
ENCODING 250
SWIDTH 500 0
DWIDTH 8 0
BBX 6 12 1 0
BITMAP
18
30
60
00
CC
CC
CC
CC
CC
CC
FC
7C
ENDCHAR
STARTCHAR ucircumflex
ENCODING 251
SWIDTH 500 0
DWIDTH 8 0
BBX 6 12 1 0
BITMAP
30
78
CC
00
CC
CC
CC
CC
CC
CC
FC
7C
ENDCHAR
STARTCHAR udieresis
ENCODING 252
SWIDTH 500 0
DWIDTH 8 0
BBX 6 11 1 0
BITMAP
D8
D8
00
CC
CC
CC
CC
CC
CC
FC
7C
ENDCHAR
STARTCHAR yacute
ENCODING 253
SWIDTH 500 0
DWIDTH 8 0
BBX 6 15 1 -3
BITMAP
18
30
60
00
CC
CC
CC
CC
CC
CC
FC
7C
0C
FC
F8
ENDCHAR
STARTCHAR thorn
ENCODING 254
SWIDTH 500 0
DWIDTH 8 0
BBX 6 14 1 -3
BITMAP
C0
C0
C0
F8
FC
CC
CC
CC
CC
FC
F8
C0
C0
C0
ENDCHAR
STARTCHAR ydieresis
ENCODING 255
SWIDTH 500 0
DWIDTH 8 0
BBX 6 14 1 -3
BITMAP
D8
D8
00
CC
CC
CC
CC
CC
CC
FC
7C
0C
FC
F8
ENDCHAR
STARTCHAR figurespace
ENCODING 8199
SWIDTH 500 0
DWIDTH 8 0
BBX 1 1 0 0
BITMAP
00
ENDCHAR
STARTCHAR thinspace
ENCODING 8201
SWIDTH 187 0
DWIDTH 3 0
BBX 1 1 2 0
BITMAP
00
ENDCHAR
STARTCHAR quoteleft
ENCODING 8216
SWIDTH 312 0
DWIDTH 5 0
BBX 3 4 1 8
BITMAP
60
C0
C0
C0
ENDCHAR
STARTCHAR quoteright
ENCODING 8217
SWIDTH 312 0
DWIDTH 5 0
BBX 3 4 1 8
BITMAP
60
60
60
C0
ENDCHAR
STARTCHAR quotedblleft
ENCODING 8220
SWIDTH 562 0
DWIDTH 9 0
BBX 7 4 1 8
BITMAP
66
CC
CC
CC
ENDCHAR
STARTCHAR quotedblright
ENCODING 8221
SWIDTH 562 0
DWIDTH 9 0
BBX 7 4 1 8
BITMAP
66
66
66
CC
ENDCHAR
STARTCHAR twoinferior
ENCODING 8322
SWIDTH 437 0
DWIDTH 7 0
BBX 5 8 1 -3
BITMAP
F0
F8
18
38
70
E0
F8
F8
ENDCHAR
STARTCHAR threeinferior
ENCODING 8323
SWIDTH 437 0
DWIDTH 7 0
BBX 5 8 1 -3
BITMAP
F0
F8
18
70
78
18
F8
F0
ENDCHAR
STARTCHAR fourinferior
ENCODING 8324
SWIDTH 437 0
DWIDTH 7 0
BBX 5 8 1 -3
BITMAP
18
38
78
D8
F8
F8
18
18
ENDCHAR
STARTCHAR minus
ENCODING 8722
SWIDTH 500 0
DWIDTH 8 0
BBX 6 2 1 5
BITMAP
FC
FC
ENDCHAR
ENDFONT
